<?xml version="1.0" encoding="UTF-8"?>
<svg version="1.1" xmlns="http://www.w3.org/2000/svg" width="512" height="476">
<path d="M0 0 C20.96723377 0 20.96723377 0 30 1.25 C31.01416992 1.38494873 32.02833984 1.51989746 33.07324219 1.65893555 C49.18562749 3.89958793 64.49837182 8.14562792 80 13 C80 13.66 80 14.32 80 15 C80.721875 14.95875 81.44375 14.9175 82.1875 14.875 C85.20729369 15.00921305 87.26935729 15.75170619 90 17 C90 17.66 90 18.32 90 19 C90.825 19.103125 91.65 19.20625 92.5 19.3125 C96.59289012 20.11646056 100.12540225 21.46352158 104 23 C104 23.66 104 24.32 104 25 C105.32 25 106.64 25 108 25 C108 25.66 108 26.32 108 27 C108.53625 27.103125 109.0725 27.20625 109.625 27.3125 C112.62502044 28.18092697 115.2379535 29.55620296 118 31 C118 31.66 118 32.32 118 33 C119.32 33 120.64 33 122 33 C122 33.66 122 34.32 122 35 C123.98 35.66 125.96 36.32 128 37 C128 37.66 128 38.32 128 39 C130.97 39.99 130.97 39.99 134 41 C134 41.66 134 42.32 134 43 C134.66 43 135.32 43 136 43 C136 43.66 136 44.32 136 45 C137.32 45 138.64 45 140 45 C140 45.66 140 46.32 140 47 C140.66 47 141.32 47 142 47 C142 47.66 142 48.32 142 49 C142.66 49 143.32 49 144 49 C144 49.66 144 50.32 144 51 C144.61875 51.144375 145.2375 51.28875 145.875 51.4375 C148 52 148 52 150 53 C150 53.66 150 54.32 150 55 C150.66 55 151.32 55 152 55 C152 55.66 152 56.32 152 57 C152.66 57 153.32 57 154 57 C154 57.66 154 58.32 154 59 C154.66 59 155.32 59 156 59 C156 59.66 156 60.32 156 61 C156.66 61 157.32 61 158 61 C158 61.66 158 62.32 158 63 C158.72574219 63.23847656 159.45148438 63.47695313 160.19921875 63.72265625 C163.41822816 65.19074004 165.3293096 66.92960124 167.8125 69.4375 C168.60269531 70.21996094 169.39289063 71.00242187 170.20703125 71.80859375 C172 74 172 74 172 77 C172.66 77 173.32 77 174 77 C174 77.66 174 78.32 174 79 C174.66 79 175.32 79 176 79 C176 79.66 176 80.32 176 81 C176.66 81 177.32 81 178 81 C178 81.66 178 82.32 178 83 C178.66 83 179.32 83 180 83 C180 83.66 180 84.32 180 85 C180.66 85 181.32 85 182 85 C182 85.66 182 86.32 182 87 C182.66 87 183.32 87 184 87 C184 88.32 184 89.64 184 91 C184.66 91 185.32 91 186 91 C186 91.66 186 92.32 186 93 C186.66 93 187.32 93 188 93 C188 93.66 188 94.32 188 95 C188.66 95 189.32 95 190 95 C190 96.32 190 97.64 190 99 C190.66 99 191.32 99 192 99 C192 99.66 192 100.32 192 101 C192.66 101 193.32 101 194 101 C196 104 196 104 196 107 C196.66 107 197.32 107 198 107 C198.66 108.98 199.32 110.96 200 113 C200.66 113 201.32 113 202 113 C202 114.32 202 115.64 202 117 C202.66 117 203.32 117 204 117 C204.66 118.98 205.32 120.96 206 123 C206.66 123 207.32 123 208 123 C208 124.32 208 125.64 208 127 C208.66 127 209.32 127 210 127 C210 128.32 210 129.64 210 131 C210.66 131 211.32 131 212 131 C212 132.32 212 133.64 212 135 C212.66 135 213.32 135 214 135 C215.60355101 138.50776784 216.22036864 141.14354879 216 145 C216.66 145 217.32 145 218 145 C218 146.32 218 147.64 218 149 C218.66 149 219.32 149 220 149 C220 150.98 220 152.96 220 155 C220.66 155 221.32 155 222 155 C222 156.98 222 158.96 222 161 C222.66 161 223.32 161 224 161 C224 162.98 224 164.96 224 167 C224.66 167 225.32 167 226 167 C226 168.98 226 170.96 226 173 C226.66 173 227.32 173 228 173 C228 175.64 228 178.28 228 181 C228.66 181 229.32 181 230 181 C231.31107439 186.98257244 232.2802602 192.85968252 232.75390625 198.96875 C232.89231607 201.06495754 232.89231607 201.06495754 234 203 C234.2646988 206.41167348 234.44415224 209.81685496 234.60546875 213.234375 C234.73687954 217.24751603 234.73687954 217.24751603 236 221 C236.09802807 223.37338901 236.13077876 225.74958829 236.1328125 228.125 C236.13376923 228.8277002 236.13472595 229.53040039 236.13571167 230.25439453 C236.13639238 231.74056081 236.1345457 233.22673006 236.13037109 234.71289062 C236.12502125 236.99095319 236.13031972 239.26881859 236.13671875 241.546875 C236.13605795 242.98958377 236.13477675 244.43229242 236.1328125 245.875 C236.13168457 247.19242188 236.13055664 248.50984375 236.12939453 249.8671875 C236 253 236 253 235 255 C234.79282822 257.67021407 234.62622225 260.32595835 234.5 263 C234.13513514 270.72972973 234.13513514 270.72972973 233 273 C232.81873784 274.49613214 232.67899619 275.99743686 232.5625 277.5 C232.08712272 282.7598196 231.12960352 287.84549849 230 293 C229.34 293 228.68 293 228 293 C228 295.64 228 298.28 228 301 C227.34 301 226.68 301 226 301 C226 302.98 226 304.96 226 307 C225.34 307 224.68 307 224 307 C224.04125 307.86625 224.0825 308.7325 224.125 309.625 C223.99542279 313.12358468 223.23980344 315.74551597 222 319 C221.34 319 220.68 319 220 319 C220 320.98 220 322.96 220 325 C219.34 325 218.68 325 218 325 C218 326.32 218 327.64 218 329 C217.34 329 216.68 329 216 329 C216 330.98 216 332.96 216 335 C215.34 335 214.68 335 214 335 C214 336.32 214 337.64 214 339 C213.34 339 212.68 339 212 339 C212 340.32 212 341.64 212 343 C211.34 343 210.68 343 210 343 C210 344.32 210 345.64 210 347 C209.34 347 208.68 347 208 347 C208 348.32 208 349.64 208 351 C207.34 351 206.68 351 206 351 C206 352.32 206 353.64 206 355 C205.34 355 204.68 355 204 355 C204 355.66 204 356.32 204 357 C203.34 357 202.68 357 202 357 C202 358.32 202 359.64 202 361 C201.34 361 200.68 361 200 361 C200 362.32 200 363.64 200 365 C199.34 365 198.68 365 198 365 C198 365.66 198 366.32 198 367 C197.34 367 196.68 367 196 367 C196 368.32 196 369.64 196 371 C195.34 371 194.68 371 194 371 C194 371.66 194 372.32 194 373 C193.34 373 192.68 373 192 373 C192 374.32 192 375.64 192 377 C191.34 377 190.68 377 190 377 C190 377.66 190 378.32 190 379 C189.34 379 188.68 379 188 379 C188 379.66 188 380.32 188 381 C187.34 381 186.68 381 186 381 C186 382.32 186 383.64 186 385 C185.34 385 184.68 385 184 385 C184 385.66 184 386.32 184 387 C183.34 387 182.68 387 182 387 C182 387.66 182 388.32 182 389 C181.34 389 180.68 389 180 389 C180 389.66 180 390.32 180 391 C179.34 391 178.68 391 178 391 C178 392.32 178 393.64 178 395 C177.34 395 176.68 395 176 395 C176 395.66 176 396.32 176 397 C175.34 397 174.68 397 174 397 C174 397.66 174 398.32 174 399 C173.34 399 172.68 399 172 399 C172 399.66 172 400.32 172 401 C171.34 401 170.68 401 170 401 C170 401.66 170 402.32 170 403 C169.34 403 168.68 403 168 403 C168 403.66 168 404.32 168 405 C167.34 405 166.68 405 166 405 C166 405.66 166 406.32 166 407 C165.34 407 164.68 407 164 407 C164 407.66 164 408.32 164 409 C163.34 409 162.68 409 162 409 C162 409.66 162 410.32 162 411 C161.34 411 160.68 411 160 411 C160 411.66 160 412.32 160 413 C159.34 413 158.68 413 158 413 C158 413.66 158 414.32 158 415 C157.34 415 156.68 415 156 415 C156 415.66 156 416.32 156 417 C155.34 417 154.68 417 154 417 C154 417.66 154 418.32 154 419 C152.02 419.66 150.04 420.32 148 421 C148 421.66 148 422.32 148 423 C147.34 423 146.68 423 146 423 C146 423.66 146 424.32 146 425 C145.34 425 144.68 425 144 425 C144 425.66 144 426.32 144 427 C142.02 427.66 140.04 428.32 138 429 C138 429.66 138 430.32 138 431 C137.34 431 136.68 431 136 431 C136 431.66 136 432.32 136 433 C134.68 433 133.36 433 132 433 C132 433.66 132 434.32 132 435 C131.34 435 130.68 435 130 435 C130 435.66 130 436.32 130 437 C128.68 437 127.36 437 126 437 C126 437.66 126 438.32 126 439 C125.34 439 124.68 439 124 439 C124 439.66 124 440.32 124 441 C122.68 441 121.36 441 120 441 C120 441.66 120 442.32 120 443 C117 445 117 445 114 445 C114 445.66 114 446.32 114 447 C112.68 447 111.36 447 110 447 C110 447.66 110 448.32 110 449 C108.68 449 107.36 449 106 449 C106 449.66 106 450.32 106 451 C104.68 451 103.36 451 102 451 C102 451.66 102 452.32 102 453 C100.68 453 99.36 453 98 453 C98 453.66 98 454.32 98 455 C96.68 455 95.36 455 94 455 C94 455.66 94 456.32 94 457 C92.68 457 91.36 457 90 457 C90 457.66 90 458.32 90 459 C88.02 459 86.04 459 84 459 C84 459.66 84 460.32 84 461 C80.49223216 462.60355101 77.85645121 463.22036864 74 463 C74 463.66 74 464.32 74 465 C72.02 465 70.04 465 68 465 C68 465.66 68 466.32 68 467 C65.36 467 62.72 467 60 467 C60 467.66 60 468.32 60 469 C54.42932723 470.59162079 49.78898419 471.20674944 44 471 C44 471.66 44 472.32 44 473 C40.04 473 36.08 473 32 473 C32 473.66 32 474.32 32 475 C29.6670209 475.17373249 27.33386219 475.33889384 25 475.5 C23.700625 475.5928125 22.40125 475.685625 21.0625 475.78125 C14.04783349 476.08435287 7.02121197 476 0 476 C0 444.98 0 413.96 0 382 C5.94 382 11.88 382 18 382 C18 381.34 18 380.68 18 380 C21.3 380 24.6 380 28 380 C28 379.34 28 378.68 28 378 C30.64 378 33.28 378 36 378 C36 377.34 36 376.68 36 376 C40.1196377 374.70756464 43.66831683 373.73747375 48 374 C48 373.34 48 372.68 48 372 C49.65 372 51.3 372 53 372 C53 371.34 53 370.68 53 370 C54.32 370 55.64 370 57 370 C57 369.34 57 368.68 57 368 C58.32 368 59.64 368 61 368 C61 367.34 61 366.68 61 366 C62.32 366 63.64 366 65 366 C65 365.34 65 364.68 65 364 C66.32 364 67.64 364 69 364 C69 363.34 69 362.68 69 362 C70.32 362 71.64 362 73 362 C73 361.34 73 360.68 73 360 C73.66 360 74.32 360 75 360 C75 359.34 75 358.68 75 358 C76.32 358 77.64 358 79 358 C79 357.34 79 356.68 79 356 C79.66 356 80.32 356 81 356 C81 355.34 81 354.68 81 354 C82.98 353.34 84.96 352.68 87 352 C87 351.34 87 350.68 87 350 C87.66 350 88.32 350 89 350 C89 349.34 89 348.68 89 348 C89.66 348 90.32 348 91 348 C91 347.34 91 346.68 91 346 C91.66 346 92.32 346 93 346 C93 345.34 93 344.68 93 344 C94.609375 342.703125 94.609375 342.703125 96.75 341.25 C100.55649946 338.51954279 102.55945745 335.94241489 105 332 C105.66 332 106.32 332 107 332 C107 331.34 107 330.68 107 330 C107.66 330 108.32 330 109 330 C109 329.34 109 328.68 109 328 C109.66 328 110.32 328 111 328 C111 327.34 111 326.68 111 326 C111.66 326 112.32 326 113 326 C113.144375 325.38125 113.28875 324.7625 113.4375 324.125 C114 322 114 322 115 320 C115.66 320 116.32 320 117 320 C117 319.34 117 318.68 117 318 C117.66 318 118.32 318 119 318 C119 316.68 119 315.36 119 314 C119.66 314 120.32 314 121 314 C121 313.01 121 312.02 121 311 C121.66 311 122.32 311 123 311 C123 310.01 123 309.02 123 308 C123.66 308 124.32 308 125 308 C125 306.68 125 305.36 125 304 C125.66 304 126.32 304 127 304 C127 302.68 127 301.36 127 300 C127.66 300 128.32 300 129 300 C129 298.68 129 297.36 129 296 C129.66 296 130.32 296 131 296 C131.144375 295.278125 131.28875 294.55625 131.4375 293.8125 C132.21875 289.90625 132.21875 289.90625 133 286 C133.66 286 134.32 286 135 286 C135 284.02 135 282.04 135 280 C135.66 280 136.32 280 137 280 C136.9690625 278.5459375 136.9690625 278.5459375 136.9375 277.0625 C137 274 137 274 138 273 C138.23075082 271.65252916 138.41153063 270.29622435 138.5625 268.9375 C138.706875 267.638125 138.85125 266.33875 139 265 C139.66 265 140.32 265 141 265 C141 261.04 141 257.08 141 253 C141.66 253 142.32 253 143 253 C143 242.77 143 232.54 143 222 C142.34 222 141.68 222 141 222 C140.93941406 221.14535156 140.87882813 220.29070312 140.81640625 219.41015625 C140.73261719 218.30542969 140.64882813 217.20070312 140.5625 216.0625 C140.48128906 214.96035156 140.40007812 213.85820312 140.31640625 212.72265625 C140.29581916 210.08890097 140.29581916 210.08890097 139 209 C138.68076508 206.9427083 138.48838648 204.88386479 138.28125 202.8125 C138.18001957 200.9832467 138.18001957 200.9832467 137 200 C136.95919217 198.00041636 136.95745644 195.99954746 137 194 C136.34 194 135.68 194 135 194 C135 192.02 135 190.04 135 188 C134.34 188 133.68 188 133 188 C131.68373308 184.38026598 131 181.90432869 131 178 C130.34 178 129.68 178 129 178 C129 176.68 129 175.36 129 174 C128.34 174 127.68 174 127 174 C127 172.68 127 171.36 127 170 C126.34 170 125.68 170 125 170 C125 168.68 125 167.36 125 166 C124.34 166 123.68 166 123 166 C121 163 121 163 121 160 C120.34 160 119.68 160 119 160 C119 158.68 119 157.36 119 156 C118.34 156 117.68 156 117 156 C117 155.34 117 154.68 117 154 C116.34 154 115.68 154 115 154 C113 151 113 151 113 148 C112.34 148 111.68 148 111 148 C111 147.34 111 146.68 111 146 C110.34 146 109.68 146 109 146 C109 145.34 109 144.68 109 144 C108.34 144 107.68 144 107 144 C107 143.34 107 142.68 107 142 C106.34 142 105.68 142 105 142 C103.703125 140.390625 103.703125 140.390625 102.25 138.25 C99.51954279 134.44350054 96.94241489 132.44054255 93 130 C93 129.34 93 128.68 93 128 C92.34 128 91.68 128 91 128 C91 127.34 91 126.68 91 126 C90.34 126 89.68 126 89 126 C89 125.34 89 124.68 89 124 C88.34 124 87.68 124 87 124 C87 123.34 87 122.68 87 122 C86.01 122 85.02 122 84 122 C84 121.34 84 120.68 84 120 C83.01 120 82.02 120 81 120 C81 119.34 81 118.68 81 118 C80.34 118 79.68 118 79 118 C79 117.34 79 116.68 79 116 C77.68 116 76.36 116 75 116 C75 115.34 75 114.68 75 114 C74.34 114 73.68 114 73 114 C73 113.34 73 112.68 73 112 C71.68 112 70.36 112 69 112 C69 111.34 69 110.68 69 110 C67.68 110 66.36 110 65 110 C65 109.34 65 108.68 65 108 C63.68 108 62.36 108 61 108 C61 107.34 61 106.68 61 106 C59.68 106 58.36 106 57 106 C57 105.34 57 104.68 57 104 C55.68 104 54.36 104 53 104 C53 103.34 53 102.68 53 102 C51.35 102 49.7 102 48 102 C48 101.34 48 100.68 48 100 C46.02 100 44.04 100 42 100 C42 99.34 42 98.68 42 98 C40.02 98 38.04 98 36 98 C36 97.34 36 96.68 36 96 C33.36 96 30.72 96 28 96 C28 95.34 28 94.68 28 94 C24.7 94 21.4 94 18 94 C18 93.34 18 92.68 18 92 C12.06 92 6.12 92 0 92 C0 61.64 0 31.28 0 0 Z " fill="#FDFDFD" transform="translate(239,0)"/>
<path d="M0 0 C0 34.32 0 68.64 0 104 C-4.95 104 -9.9 104 -15 104 C-15 104.66 -15 105.32 -15 106 C-19.95 106 -24.9 106 -30 106 C-30 106.66 -30 107.32 -30 108 C-32.64 108 -35.28 108 -38 108 C-38 108.66 -38 109.32 -38 110 C-39.98 110 -41.96 110 -44 110 C-44 110.66 -44 111.32 -44 112 C-45.98 112 -47.96 112 -50 112 C-50 112.66 -50 113.32 -50 114 C-51.32 114 -52.64 114 -54 114 C-54 114.66 -54 115.32 -54 116 C-55.32 116 -56.64 116 -58 116 C-58 116.66 -58 117.32 -58 118 C-59.32 118 -60.64 118 -62 118 C-62 118.66 -62 119.32 -62 120 C-63.32 120 -64.64 120 -66 120 C-66 120.66 -66 121.32 -66 122 C-66.66 122 -67.32 122 -68 122 C-68 122.66 -68 123.32 -68 124 C-69.32 124 -70.64 124 -72 124 C-72 124.66 -72 125.32 -72 126 C-72.66 126 -73.32 126 -74 126 C-74 126.66 -74 127.32 -74 128 C-76.97 128.99 -76.97 128.99 -80 130 C-80 130.66 -80 131.32 -80 132 C-80.66 132 -81.32 132 -82 132 C-82 132.66 -82 133.32 -82 134 C-82.66 134 -83.32 134 -84 134 C-84 134.66 -84 135.32 -84 136 C-84.66 136 -85.32 136 -86 136 C-86 136.66 -86 137.32 -86 138 C-86.99 138.66 -87.98 139.32 -89 140 C-44.945 140.495 -44.945 140.495 0 141 C0 153.87 0 166.74 0 180 C-3.65835938 180.06058594 -7.31671875 180.12117187 -11.0859375 180.18359375 C-14.61720929 180.24534798 -18.14844789 180.30875025 -21.6796875 180.37231445 C-24.13961859 180.41570779 -26.59958065 180.45737956 -29.05957031 180.49731445 C-32.58928784 180.55491057 -36.11884876 180.61863557 -39.6484375 180.68359375 C-40.75367767 180.70030624 -41.85891785 180.71701874 -42.99765015 180.73423767 C-44.01855743 180.75418289 -45.03946472 180.77412811 -46.09130859 180.79467773 C-46.99287689 180.81022202 -47.89444519 180.8257663 -48.82333374 180.84178162 C-51.04636301 180.86435092 -51.04636301 180.86435092 -53 182 C-55.06292985 182.09160337 -57.12888885 182.1175118 -59.19384766 182.11352539 C-60.49504547 182.11344986 -61.79624329 182.11337433 -63.13687134 182.11329651 C-64.56260211 182.10818947 -65.9883325 182.10297347 -67.4140625 182.09765625 C-68.86851961 182.09579147 -70.32297734 182.09436785 -71.7774353 182.09336853 C-75.60792776 182.08954805 -79.43838237 182.07972176 -83.26885986 182.06866455 C-87.17663053 182.05844035 -91.08440731 182.05386874 -94.9921875 182.04882812 C-102.6614756 182.03809908 -110.3307325 182.02102828 -118 182 C-118 182.66 -118 183.32 -118 184 C-119.32 184 -120.64 184 -122 184 C-122 184.66 -122 185.32 -122 186 C-122.66 186 -123.32 186 -124 186 C-124.144375 186.61875 -124.28875 187.2375 -124.4375 187.875 C-125 190 -125 190 -126 192 C-126.66 192 -127.32 192 -128 192 C-128 193.32 -128 194.64 -128 196 C-128.66 196 -129.32 196 -130 196 C-130 197.98 -130 199.96 -130 202 C-130.66 202 -131.32 202 -132 202 C-132 204.64 -132 207.28 -132 210 C-132.66 210 -133.32 210 -134 210 C-134 215.61 -134 221.22 -134 227 C-134.66 227 -135.32 227 -136 227 C-136 231.62 -136 236.24 -136 241 C-135.34 241 -134.68 241 -134 241 C-134 246.94 -134 252.88 -134 259 C-133.34 259 -132.68 259 -132 259 C-132 260.98 -132 262.96 -132 265 C-131.34 265 -130.68 265 -130 265 C-130 266.65 -130 268.3 -130 270 C-129.34 270 -128.68 270 -128 270 C-128 270.66 -128 271.32 -128 272 C-127.34 272 -126.68 272 -126 272 C-126 272.66 -126 273.32 -126 274 C-125.34 274 -124.68 274 -124 274 C-124 274.66 -124 275.32 -124 276 C-123.34 276 -122.68 276 -122 276 C-122 276.66 -122 277.32 -122 278 C-120.02 278.66 -118.04 279.32 -116 280 C-116 280.66 -116 281.32 -116 282 C-114.68 282 -113.36 282 -112 282 C-112 282.66 -112 283.32 -112 284 C-110.68 284 -109.36 284 -108 284 C-108 284.66 -108 285.32 -108 286 C-106.68 286 -105.36 286 -104 286 C-104 286.66 -104 287.32 -104 288 C-102.02 288 -100.04 288 -98 288 C-98 288.66 -98 289.32 -98 290 C-96.02 290 -94.04 290 -92 290 C-92 290.66 -92 291.32 -92 292 C-90.02 292 -88.04 292 -86 292 C-86 292.66 -86 293.32 -86 294 C-85.030625 293.979375 -84.06125 293.95875 -83.0625 293.9375 C-80 294 -80 294 -79 295 C-76.67182036 295.36760731 -74.3381615 295.70241581 -72 296 C-72 296.66 -72 297.32 -72 298 C-71.030625 297.979375 -70.06125 297.95875 -69.0625 297.9375 C-66 298 -66 298 -65 299 C-62.98405418 299.23427778 -60.961526 299.41336124 -58.9375 299.5625 C-57.83277344 299.64628906 -56.72804687 299.73007812 -55.58984375 299.81640625 C-54.73519531 299.87699219 -53.88054687 299.93757813 -53 300 C-53 299.34 -53 298.68 -53 298 C-52.34 298 -51.68 298 -51 298 C-50.8453125 297.2265625 -50.8453125 297.2265625 -50.6875 296.4375 C-49.75736134 293.13973565 -48.38604488 290.13366668 -47 287 C-46.34 287 -45.68 287 -45 287 C-45 286.01 -45 285.02 -45 284 C-44.34 284 -43.68 284 -43 284 C-43 282.68 -43 281.36 -43 280 C-42.34 280 -41.68 280 -41 280 C-41 278.35 -41 276.7 -41 275 C-40.34 275 -39.68 275 -39 275 C-39 273.68 -39 272.36 -39 271 C-38.34 271 -37.68 271 -37 271 C-37 269.68 -37 268.36 -37 267 C-36.34 267 -35.68 267 -35 267 C-35 265.68 -35 264.36 -35 263 C-34.34 263 -33.68 263 -33 263 C-33 261.68 -33 260.36 -33 259 C-32.34 259 -31.68 259 -31 259 C-31 257.68 -31 256.36 -31 255 C-30.34 255 -29.68 255 -29 255 C-29 253.68 -29 252.36 -29 251 C-28.34 251 -27.68 251 -27 251 C-27 249.68 -27 248.36 -27 247 C-26.34 247 -25.68 247 -25 247 C-25 246.34 -25 245.68 -25 245 C-24.34 245 -23.68 245 -23 245 C-23 243.68 -23 242.36 -23 241 C-22.34 241 -21.68 241 -21 241 C-21 239.68 -21 238.36 -21 237 C-20.34 237 -19.68 237 -19 237 C-19 236.34 -19 235.68 -19 235 C-18.34 235 -17.68 235 -17 235 C-17 234.34 -17 233.68 -17 233 C-16.34 233 -15.68 233 -15 233 C-15 231.68 -15 230.36 -15 229 C-14.34 229 -13.68 229 -13 229 C-13 228.34 -13 227.68 -13 227 C-11.68 227 -10.36 227 -9 227 C-9 226.34 -9 225.68 -9 225 C-8.34 225 -7.68 225 -7 225 C-7 224.34 -7 223.68 -7 223 C-4.69 223 -2.38 223 0 223 C0.0231314 236.00383566 0.04091918 249.00766646 0.05181217 262.01151848 C0.05703924 268.04919026 0.06413373 274.08684801 0.07543945 280.12451172 C0.08627454 285.94702417 0.09227816 291.76952308 0.09487724 297.59204483 C0.09673037 299.81768126 0.10034883 302.04331691 0.10573006 304.2689476 C0.1129487 307.37706882 0.11399059 310.48513352 0.11352539 313.59326172 C0.11712067 314.52114502 0.12071594 315.44902832 0.12442017 316.4050293 C0.1230455 317.24919403 0.12167084 318.09335876 0.12025452 318.96310425 C0.12163721 320.06649045 0.12163721 320.06649045 0.12304783 321.19216728 C0 323 0 323 -1 325 C-3.64 325 -6.28 325 -9 325 C-9 324.34 -9 323.68 -9 323 C-10.32 323 -11.64 323 -13 323 C-13 322.34 -13 321.68 -13 321 C-13.66 321 -14.32 321 -15 321 C-15 320.34 -15 319.68 -15 319 C-15.66 319 -16.32 319 -17 319 C-17 317.68 -17 316.36 -17 315 C-17.66 315 -18.32 315 -19 315 C-19 313.68 -19 312.36 -19 311 C-19.66 311 -20.32 311 -21 311 C-21 309.68 -21 308.36 -21 307 C-21.66 307 -22.32 307 -23 307 C-23 306.34 -23 305.68 -23 305 C-24.32 305 -25.64 305 -27 305 C-27.33 305.66 -27.66 306.32 -28 307 C-28.66 307 -29.32 307 -30 307 C-30 308.32 -30 309.64 -30 311 C-30.66 311 -31.32 311 -32 311 C-32 312.32 -32 313.64 -32 315 C-32.66 315 -33.32 315 -34 315 C-34 315.66 -34 316.32 -34 317 C-34.66 317 -35.32 317 -36 317 C-36 317.66 -36 318.32 -36 319 C-36.66 319 -37.32 319 -38 319 C-38 319.66 -38 320.32 -38 321 C-38.66 321 -39.32 321 -40 321 C-40 321.66 -40 322.32 -40 323 C-41.65 323 -43.3 323 -45 323 C-45 323.66 -45 324.32 -45 325 C-51.6 325 -58.2 325 -65 325 C-65 324.34 -65 323.68 -65 323 C-67.64 323 -70.28 323 -73 323 C-73 322.34 -73 321.68 -73 321 C-75.64 321 -78.28 321 -81 321 C-81 320.34 -81 319.68 -81 319 C-82.32 319.33 -83.64 319.66 -85 320 C-84.67 321.32 -84.34 322.64 -84 324 C-83.34 324 -82.68 324 -82 324 C-80 327 -80 327 -80 330 C-79.34 330 -78.68 330 -78 330 C-78 330.66 -78 331.32 -78 332 C-77.34 332 -76.68 332 -76 332 C-76 333.32 -76 334.64 -76 336 C-75.34 336 -74.68 336 -74 336 C-74 336.66 -74 337.32 -74 338 C-73.34 338 -72.68 338 -72 338 C-72 339.32 -72 340.64 -72 342 C-71.34 342 -70.68 342 -70 342 C-70 342.66 -70 343.32 -70 344 C-69.34 344 -68.68 344 -68 344 C-67.34 345.98 -66.68 347.96 -66 350 C-65.34 350 -64.68 350 -64 350 C-61.70986347 353.4352048 -61.82157027 354.985331 -62 359 C-62.66 359 -63.32 359 -64 359 C-64 360.32 -64 361.64 -64 363 C-64.66 363 -65.32 363 -66 363 C-66 364.32 -66 365.64 -66 367 C-66.66 367 -67.32 367 -68 367 C-68 368.32 -68 369.64 -68 371 C-68.66 371 -69.32 371 -70 371 C-70.12375 371.86625 -70.2475 372.7325 -70.375 373.625 C-71 377 -71 377 -72 379.875 C-72.83309348 382.47841711 -73.26082906 384.62619213 -73.5625 387.3125 C-74 391 -74 391 -75 392 C-75.15655027 393.48638992 -75.25066943 394.97949127 -75.31640625 396.47265625 C-75.35830078 397.37177734 -75.40019531 398.27089844 -75.44335938 399.19726562 C-75.48267578 400.14279297 -75.52199219 401.08832031 -75.5625 402.0625 C-75.62727539 403.4865918 -75.62727539 403.4865918 -75.69335938 404.93945312 C-75.79979276 407.29281353 -75.90181008 409.64628354 -76 412 C-75.34 412 -74.68 412 -74 412 C-74 415.3 -74 418.6 -74 422 C-73.34 422 -72.68 422 -72 422 C-72 423.98 -72 425.96 -72 428 C-71.34 428 -70.68 428 -70 428 C-70 429.98 -70 431.96 -70 434 C-69.34 434 -68.68 434 -68 434 C-68 435.32 -68 436.64 -68 438 C-67.34 438 -66.68 438 -66 438 C-66 439.32 -66 440.64 -66 442 C-65.34 442 -64.68 442 -64 442 C-64 442.66 -64 443.32 -64 444 C-63.34 444 -62.68 444 -62 444 C-62 445.32 -62 446.64 -62 448 C-61.34 448 -60.68 448 -60 448 C-60 448.66 -60 449.32 -60 450 C-59.34 450 -58.68 450 -58 450 C-56 453 -56 453 -56 456 C-55.34 456 -54.68 456 -54 456 C-54 456.66 -54 457.32 -54 458 C-53.34 458 -52.68 458 -52 458 C-52 458.66 -52 459.32 -52 460 C-51.34 460 -50.68 460 -50 460 C-50 460.66 -50 461.32 -50 462 C-49.01 462 -48.02 462 -47 462 C-47 462.66 -47 463.32 -47 464 C-46.01 464 -45.02 464 -44 464 C-44 464.66 -44 465.32 -44 466 C-43.34 466 -42.68 466 -42 466 C-42 466.66 -42 467.32 -42 468 C-40.68 468 -39.36 468 -38 468 C-38 468.66 -38 469.32 -38 470 C-37.34 470 -36.68 470 -36 470 C-36.33 470.99 -36.66 471.98 -37 473 C-40.3 473 -43.6 473 -47 473 C-47 472.34 -47 471.68 -47 471 C-48.9490625 471.0928125 -48.9490625 471.0928125 -50.9375 471.1875 C-55.35043046 471.20137714 -58.8057088 470.26239427 -62.9140625 468.734375 C-65.56806904 467.80000566 -68.21487509 467.3570673 -71 467 C-71 466.34 -71 465.68 -71 465 C-72.98 465 -74.96 465 -77 465 C-77 464.34 -77 463.68 -77 463 C-78.98 463 -80.96 463 -83 463 C-83 462.34 -83 461.68 -83 461 C-83.9075 460.855625 -84.815 460.71125 -85.75 460.5625 C-88.21476956 460.13590527 -90.58847107 459.64925779 -93 459 C-93 458.34 -93 457.68 -93 457 C-94.32 457 -95.64 457 -97 457 C-97 456.34 -97 455.68 -97 455 C-97.78375 454.938125 -98.5675 454.87625 -99.375 454.8125 C-104.35288793 453.6967665 -108.52453694 451.39693773 -113 449 C-113 448.34 -113 447.68 -113 447 C-114.32 447 -115.64 447 -117 447 C-117 446.34 -117 445.68 -117 445 C-118.32 445 -119.64 445 -121 445 C-121 444.34 -121 443.68 -121 443 C-121.61875 442.855625 -122.2375 442.71125 -122.875 442.5625 C-125 442 -125 442 -127 441 C-127 440.34 -127 439.68 -127 439 C-128.32 439 -129.64 439 -131 439 C-131 438.34 -131 437.68 -131 437 C-131.66 437 -132.32 437 -133 437 C-133 436.34 -133 435.68 -133 435 C-134.32 435 -135.64 435 -137 435 C-137 434.34 -137 433.68 -137 433 C-137.66 433 -138.32 433 -139 433 C-139 432.34 -139 431.68 -139 431 C-139.61875 430.855625 -140.2375 430.71125 -140.875 430.5625 C-143 430 -143 430 -145 429 C-145 428.34 -145 427.68 -145 427 C-145.66 427 -146.32 427 -147 427 C-147 426.34 -147 425.68 -147 425 C-147.66 425 -148.32 425 -149 425 C-149 424.34 -149 423.68 -149 423 C-150.32 423 -151.64 423 -153 423 C-153 422.34 -153 421.68 -153 421 C-153.66 421 -154.32 421 -155 421 C-155 420.34 -155 419.68 -155 419 C-155.66 419 -156.32 419 -157 419 C-157 418.34 -157 417.68 -157 417 C-157.66 417 -158.32 417 -159 417 C-159 416.34 -159 415.68 -159 415 C-159.66 415 -160.32 415 -161 415 C-161 414.34 -161 413.68 -161 413 C-161.66 413 -162.32 413 -163 413 C-163 412.34 -163 411.68 -163 411 C-163.66 411 -164.32 411 -165 411 C-165 410.34 -165 409.68 -165 409 C-165.66 409 -166.32 409 -167 409 C-167 408.34 -167 407.68 -167 407 C-167.66 407 -168.32 407 -169 407 C-169 406.34 -169 405.68 -169 405 C-169.66 405 -170.32 405 -171 405 C-171 404.34 -171 403.68 -171 403 C-171.66 403 -172.32 403 -173 403 C-173 402.34 -173 401.68 -173 401 C-173.66 401 -174.32 401 -175 401 C-175 400.34 -175 399.68 -175 399 C-175.66 399 -176.32 399 -177 399 C-177 398.34 -177 397.68 -177 397 C-177.66 397 -178.32 397 -179 397 C-179 396.34 -179 395.68 -179 395 C-179.66 395 -180.32 395 -181 395 C-181 394.34 -181 393.68 -181 393 C-181.66 393 -182.32 393 -183 393 C-185 390 -185 390 -185 387 C-185.66 387 -186.32 387 -187 387 C-187 386.34 -187 385.68 -187 385 C-187.66 385 -188.32 385 -189 385 C-189 384.34 -189 383.68 -189 383 C-189.66 383 -190.32 383 -191 383 C-191.66 381.02 -192.32 379.04 -193 377 C-193.66 377 -194.32 377 -195 377 C-197 374 -197 374 -197 371 C-197.66 371 -198.32 371 -199 371 C-201 368 -201 368 -201 365 C-201.66 365 -202.32 365 -203 365 C-203.66 363.02 -204.32 361.04 -205 359 C-205.66 359 -206.32 359 -207 359 C-207 357.68 -207 356.36 -207 355 C-207.66 355 -208.32 355 -209 355 C-209 353.68 -209 352.36 -209 351 C-209.66 351 -210.32 351 -211 351 C-211 349.68 -211 348.36 -211 347 C-211.66 347 -212.32 347 -213 347 C-213 345.68 -213 344.36 -213 343 C-213.66 343 -214.32 343 -215 343 C-215 341.68 -215 340.36 -215 339 C-215.66 339 -216.32 339 -217 339 C-217 337.68 -217 336.36 -217 335 C-217.66 335 -218.32 335 -219 335 C-220.31626692 331.38026598 -221 328.90432869 -221 325 C-221.66 325 -222.32 325 -223 325 C-240.34736705 277.38701384 -246.48213185 217.31830063 -228 169 C-227.60919203 167.01043215 -227.25149128 165.01193023 -227 163 C-226.34 163 -225.68 163 -225 163 C-225 161.02 -225 159.04 -225 157 C-224.34 157 -223.68 157 -223 157 C-222.855625 156.0925 -222.71125 155.185 -222.5625 154.25 C-222.13590527 151.78523044 -221.64925779 149.41152893 -221 147 C-220.34 147 -219.68 147 -219 147 C-218.896875 146.175 -218.79375 145.35 -218.6875 144.5 C-217.88353944 140.40710988 -216.53647842 136.87459775 -215 133 C-214.34 133 -213.68 133 -213 133 C-213 131.68 -213 130.36 -213 129 C-212.34 129 -211.68 129 -211 129 C-210.896875 128.46375 -210.79375 127.9275 -210.6875 127.375 C-209.81907303 124.37497956 -208.44379704 121.7620465 -207 119 C-206.34 119 -205.68 119 -205 119 C-205 117.68 -205 116.36 -205 115 C-204.34 115 -203.68 115 -203 115 C-202.855625 114.38125 -202.71125 113.7625 -202.5625 113.125 C-202 111 -202 111 -201 109 C-200.34 109 -199.68 109 -199 109 C-199 107.68 -199 106.36 -199 105 C-201.64 104.67 -204.28 104.34 -207 104 C-207 103.34 -207 102.68 -207 102 C-207.66 102 -208.32 102 -209 102 C-211.46934085 98.29598872 -211.44928433 95.29412135 -211 91 C-210 88.5 -210 88.5 -209 87 C-207.68 87 -206.36 87 -205 87 C-205 86.34 -205 85.68 -205 85 C-197.11568572 84.95364147 -189.23142848 84.91811298 -181.34701157 84.89637566 C-177.68588188 84.88594237 -174.02484551 84.87179156 -170.36376953 84.84912109 C-166.83004083 84.82737636 -163.29640184 84.81542795 -159.76261139 84.81024551 C-157.75957783 84.80475656 -155.75658031 84.78914619 -153.75360107 84.77340698 C-152.53263733 84.77325592 -151.31167358 84.77310486 -150.05371094 84.77294922 C-148.44154694 84.76628738 -148.44154694 84.76628738 -146.79681396 84.75949097 C-144.00951961 84.99918137 -142.36870835 85.56004393 -140 87 C-140 87.66 -140 88.32 -140 89 C-139.34 89 -138.68 89 -138 89 C-137.67 90.32 -137.34 91.64 -137 93 C-136.34 93 -135.68 93 -135 93 C-135 91.68 -135 90.36 -135 89 C-134.34 89 -133.68 89 -133 89 C-133 87.68 -133 86.36 -133 85 C-132.34 85 -131.68 85 -131 85 C-131 83.68 -131 82.36 -131 81 C-130.34 81 -129.68 81 -129 81 C-129 79.68 -129 78.36 -129 77 C-128.34 77 -127.68 77 -127 77 C-126.855625 76.38125 -126.71125 75.7625 -126.5625 75.125 C-126 73 -126 73 -125 71 C-124.34 71 -123.68 71 -123 71 C-123 69.68 -123 68.36 -123 67 C-122.34 67 -121.68 67 -121 67 C-121 66.34 -121 65.68 -121 65 C-120.34 65 -119.68 65 -119 65 C-119 63.68 -119 62.36 -119 61 C-118.34 61 -117.68 61 -117 61 C-117 60.34 -117 59.68 -117 59 C-116.34 59 -115.68 59 -115 59 C-115 58.01 -115 57.02 -115 56 C-114.34 56 -113.68 56 -113 56 C-113 55.01 -113 54.02 -113 53 C-112.34 53 -111.68 53 -111 53 C-111 52.34 -111 51.68 -111 51 C-110.34 51 -109.68 51 -109 51 C-109 50.34 -109 49.68 -109 49 C-108.34 49 -107.68 49 -107 49 C-107 48.34 -107 47.68 -107 47 C-106.34 47 -105.68 47 -105 47 C-105 46.34 -105 45.68 -105 45 C-104.34 45 -103.68 45 -103 45 C-103 44.01 -103 43.02 -103 42 C-102.34 42 -101.68 42 -101 42 C-101 41.34 -101 40.68 -101 40 C-100.34 40 -99.68 40 -99 40 C-99 39.34 -99 38.68 -99 38 C-98.34 38 -97.68 38 -97 38 C-97 37.34 -97 36.68 -97 36 C-95.68 35.67 -94.36 35.34 -93 35 C-93 34.34 -93 33.68 -93 33 C-92.34 33 -91.68 33 -91 33 C-91 32.34 -91 31.68 -91 31 C-90.34 31 -89.68 31 -89 31 C-89 30.34 -89 29.68 -89 29 C-88.34 29 -87.68 29 -87 29 C-87 28.34 -87 27.68 -87 27 C-85.02 26.34 -83.04 25.68 -81 25 C-81 24.34 -81 23.68 -81 23 C-80.34 23 -79.68 23 -79 23 C-79 22.34 -79 21.68 -79 21 C-77.68 21 -76.36 21 -75 21 C-75 20.34 -75 19.68 -75 19 C-73.02 18.34 -71.04 17.68 -69 17 C-69 16.34 -69 15.68 -69 15 C-67.68 15 -66.36 15 -65 15 C-65 14.34 -65 13.68 -65 13 C-63.68 13 -62.36 13 -61 13 C-61 12.34 -61 11.68 -61 11 C-40.72828417 2.61170379 -22.14457222 0 0 0 Z M-140 100 C-139 102 -139 102 -139 102 Z M-142 102 C-142 102.66 -142 103.32 -142 104 C-145.96 104 -149.92 104 -154 104 C-154 104.66 -154 105.32 -154 106 C-154.66 106 -155.32 106 -156 106 C-156 106.66 -156 107.32 -156 108 C-156.66 108 -157.32 108 -158 108 C-158 108.66 -158 109.32 -158 110 C-158.66 110 -159.32 110 -160 110 C-160 111.32 -160 112.64 -160 114 C-160.66 114 -161.32 114 -162 114 C-162 114.66 -162 115.32 -162 116 C-162.66 116 -163.32 116 -164 116 C-164 116.66 -164 117.32 -164 118 C-164.66 118 -165.32 118 -166 118 C-166 119.32 -166 120.64 -166 122 C-166.66 122 -167.32 122 -168 122 C-168 122.66 -168 123.32 -168 124 C-168.66 124 -169.32 124 -170 124 C-170 125.32 -170 126.64 -170 128 C-170.66 128 -171.32 128 -172 128 C-172 128.66 -172 129.32 -172 130 C-172.66 130 -173.32 130 -174 130 C-174 131.32 -174 132.64 -174 134 C-174.66 134 -175.32 134 -176 134 C-176 134.99 -176 135.98 -176 137 C-176.66 137 -177.32 137 -178 137 C-178 137.99 -178 138.98 -178 140 C-178.66 140 -179.32 140 -180 140 C-180 141.32 -180 142.64 -180 144 C-180.66 144 -181.32 144 -182 144 C-182 145.32 -182 146.64 -182 148 C-182.66 148 -183.32 148 -184 148 C-184 149.32 -184 150.64 -184 152 C-184.66 152 -185.32 152 -186 152 C-186 153.32 -186 154.64 -186 156 C-186.66 156 -187.32 156 -188 156 C-188 157.98 -188 159.96 -188 162 C-188.66 162 -189.32 162 -190 162 C-190 163.32 -190 164.64 -190 166 C-190.66 166 -191.32 166 -192 166 C-192 167.98 -192 169.96 -192 172 C-192.66 172 -193.32 172 -194 172 C-194 173.98 -194 175.96 -194 178 C-194.66 178 -195.32 178 -196 178 C-196 179.98 -196 181.96 -196 184 C-196.66 184 -197.32 184 -198 184 C-198 186.64 -198 189.28 -198 192 C-198.66 192 -199.32 192 -200 192 C-200 194.97 -200 197.94 -200 201 C-200.66 201 -201.32 201 -202 201 C-202 205.29 -202 209.58 -202 214 C-202.66 214 -203.32 214 -204 214 C-204 230.83 -204 247.66 -204 265 C-203.34 265 -202.68 265 -202 265 C-202 268.63 -202 272.26 -202 276 C-201.34 276 -200.68 276 -200 276 C-200 279.3 -200 282.6 -200 286 C-199.34 286 -198.68 286 -198 286 C-198 288.31 -198 290.62 -198 293 C-197.34 293 -196.68 293 -196 293 C-196 295.31 -196 297.62 -196 300 C-195.34 300 -194.68 300 -194 300 C-194 301.98 -194 303.96 -194 306 C-193.34 306 -192.68 306 -192 306 C-192 307.65 -192 309.3 -192 311 C-191.34 311 -190.68 311 -190 311 C-190 312.65 -190 314.3 -190 316 C-189.34 316 -188.68 316 -188 316 C-188 317.32 -188 318.64 -188 320 C-187.34 320 -186.68 320 -186 320 C-185.7834375 321.11375 -185.7834375 321.11375 -185.5625 322.25 C-185.09812508 324.52027739 -184.58136431 326.75759479 -184 329 C-183.34 329 -182.68 329 -182 329 C-181.855625 329.598125 -181.71125 330.19625 -181.5625 330.8125 C-181.1127561 332.56150404 -180.57107659 334.28677023 -180 336 C-179.34 336 -178.68 336 -178 336 C-178 337.32 -178 338.64 -178 340 C-177.34 340 -176.68 340 -176 340 C-176 341.32 -176 342.64 -176 344 C-175.34 344 -174.68 344 -174 344 C-174 344.66 -174 345.32 -174 346 C-173.34 346 -172.68 346 -172 346 C-172 347.32 -172 348.64 -172 350 C-171.34 350 -170.68 350 -170 350 C-170 350.66 -170 351.32 -170 352 C-169.34 352 -168.68 352 -168 352 C-168 353.32 -168 354.64 -168 356 C-167.34 356 -166.68 356 -166 356 C-166 356.66 -166 357.32 -166 358 C-165.34 358 -164.68 358 -164 358 C-164 359.32 -164 360.64 -164 362 C-163.34 362 -162.68 362 -162 362 C-162 362.66 -162 363.32 -162 364 C-161.34 364 -160.68 364 -160 364 C-160 364.66 -160 365.32 -160 366 C-159.34 366 -158.68 366 -158 366 C-158 366.66 -158 367.32 -158 368 C-157.34 368 -156.68 368 -156 368 C-156 368.99 -156 369.98 -156 371 C-155.34 371 -154.68 371 -154 371 C-154 371.99 -154 372.98 -154 374 C-153.34 374 -152.68 374 -152 374 C-152 374.66 -152 375.32 -152 376 C-151.34 376 -150.68 376 -150 376 C-150 376.66 -150 377.32 -150 378 C-149.34 378 -148.68 378 -148 378 C-148 378.66 -148 379.32 -148 380 C-147.34 380 -146.68 380 -146 380 C-146 380.66 -146 381.32 -146 382 C-145.34 382 -144.68 382 -144 382 C-144 382.66 -144 383.32 -144 384 C-143.34 384 -142.68 384 -142 384 C-142 384.66 -142 385.32 -142 386 C-141.34 386 -140.68 386 -140 386 C-140 386.66 -140 387.32 -140 388 C-139.34 388 -138.68 388 -138 388 C-138 388.66 -138 389.32 -138 390 C-137.34 390 -136.68 390 -136 390 C-136 390.66 -136 391.32 -136 392 C-135.34 392 -134.68 392 -134 392 C-134 392.66 -134 393.32 -134 394 C-132.68 394 -131.36 394 -130 394 C-130 394.66 -130 395.32 -130 396 C-129.34 396 -128.68 396 -128 396 C-128 396.66 -128 397.32 -128 398 C-127.34 398 -126.68 398 -126 398 C-126 398.66 -126 399.32 -126 400 C-125.34 400 -124.68 400 -124 400 C-124 400.66 -124 401.32 -124 402 C-122.68 402 -121.36 402 -120 402 C-120 402.66 -120 403.32 -120 404 C-119.34 404 -118.68 404 -118 404 C-118 404.66 -118 405.32 -118 406 C-116.68 406 -115.36 406 -114 406 C-114 406.66 -114 407.32 -114 408 C-113.34 408 -112.68 408 -112 408 C-111.67 408.66 -111.34 409.32 -111 410 C-111 403.4 -111 396.8 -111 390 C-110.34 390 -109.68 390 -109 390 C-109 388.68 -109 387.36 -109 386 C-108.34 386 -107.68 386 -107 386 C-107 385.34 -107 384.68 -107 384 C-106.34 384 -105.68 384 -105 384 C-105 383.34 -105 382.68 -105 382 C-104.34 382 -103.68 382 -103 382 C-103 381.34 -103 380.68 -103 380 C-102.34 380 -101.68 380 -101 380 C-101 379.34 -101 378.68 -101 378 C-99.68 378 -98.36 378 -97 378 C-97 377.34 -97 376.68 -97 376 C-96.34 376 -95.68 376 -95 376 C-95 375.01 -95 374.02 -95 373 C-95.66 373 -96.32 373 -97 373 C-97 371.68 -97 370.36 -97 369 C-97.66 369 -98.32 369 -99 369 C-99 367.68 -99 366.36 -99 365 C-99.66 365 -100.32 365 -101 365 C-101 363.68 -101 362.36 -101 361 C-101.66 361 -102.32 361 -103 361 C-103 359.68 -103 358.36 -103 357 C-103.66 357 -104.32 357 -105 357 C-105 355.68 -105 354.36 -105 353 C-105.66 353 -106.32 353 -107 353 C-107 351.68 -107 350.36 -107 349 C-107.66 349 -108.32 349 -109 349 C-109 347.68 -109 346.36 -109 345 C-109.66 345 -110.32 345 -111 345 C-111 343.68 -111 342.36 -111 341 C-111.66 341 -112.32 341 -113 341 C-113 339.68 -113 338.36 -113 337 C-113.66 337 -114.32 337 -115 337 C-115 335.68 -115 334.36 -115 333 C-115.66 333 -116.32 333 -117 333 C-117 331.68 -117 330.36 -117 329 C-117.66 329 -118.32 329 -119 329 C-119 327.68 -119 326.36 -119 325 C-119.66 325 -120.32 325 -121 325 C-121 323.68 -121 322.36 -121 321 C-121.66 321 -122.32 321 -123 321 C-123 319.68 -123 318.36 -123 317 C-123.66 317 -124.32 317 -125 317 C-125 315.68 -125 314.36 -125 313 C-125.66 313 -126.32 313 -127 313 C-127 311.68 -127 310.36 -127 309 C-127.66 309 -128.32 309 -129 309 C-129 307.68 -129 306.36 -129 305 C-129.66 305 -130.32 305 -131 305 C-131 303.68 -131 302.36 -131 301 C-132.32 301 -133.64 301 -135 301 C-135 300.34 -135 299.68 -135 299 C-135.66 299 -136.32 299 -137 299 C-137 298.34 -137 297.68 -137 297 C-138.32 297 -139.64 297 -141 297 C-141 296.34 -141 295.68 -141 295 C-141.66 295 -142.32 295 -143 295 C-143 294.34 -143 293.68 -143 293 C-143.66 293 -144.32 293 -145 293 C-145 292.34 -145 291.68 -145 291 C-145.66 291 -146.32 291 -147 291 C-147 289.68 -147 288.36 -147 287 C-147.66 287 -148.32 287 -149 287 C-149 286.34 -149 285.68 -149 285 C-149.66 285 -150.32 285 -151 285 C-151 283.68 -151 282.36 -151 281 C-151.66 281 -152.32 281 -153 281 C-153 279.68 -153 278.36 -153 277 C-153.66 277 -154.32 277 -155 277 C-155 275.68 -155 274.36 -155 273 C-155.66 273 -156.32 273 -157 273 C-157 270.36 -157 267.72 -157 265 C-157.66 265 -158.32 265 -159 265 C-159 251.14 -159 237.28 -159 223 C-158.34 223 -157.68 223 -157 223 C-157 204.52 -157 186.04 -157 167 C-156.34 167 -155.68 167 -155 167 C-154.93941406 166.01257813 -154.87882812 165.02515625 -154.81640625 164.0078125 C-154.73261719 162.72648437 -154.64882812 161.44515625 -154.5625 160.125 C-154.48128906 158.84882813 -154.40007812 157.57265625 -154.31640625 156.2578125 C-154 153 -154 153 -153 151 C-152.93003986 149.29297265 -152.91559846 147.58331997 -152.9375 145.875 C-152.94652344 144.96492188 -152.95554688 144.05484375 -152.96484375 143.1171875 C-152.97644531 142.41851562 -152.98804688 141.71984375 -153 141 C-152.34 141 -151.68 141 -151 141 C-151 138.36 -151 135.72 -151 133 C-150.34 133 -149.68 133 -149 133 C-149 130.36 -149 127.72 -149 125 C-148.34 125 -147.68 125 -147 125 C-147 123.02 -147 121.04 -147 119 C-146.34 119 -145.68 119 -145 119 C-145 117.02 -145 115.04 -145 113 C-144.34 113 -143.68 113 -143 113 C-143 111.02 -143 109.04 -143 107 C-142.34 107 -141.68 107 -141 107 C-140.67 105.35 -140.34 103.7 -140 102 C-140.66 102 -141.32 102 -142 102 Z " fill="#FDFDFD" transform="translate(238,0)"/>
<path d="M0 0 C3.3 0 6.6 0 10 0 C10 0.66 10 1.32 10 2 C14.62 2 19.24 2 24 2 C24 2.66 24 3.32 24 4 C26.64 4 29.28 4 32 4 C32 4.66 32 5.32 32 6 C34.64 6 37.28 6 40 6 C40 6.66 40 7.32 40 8 C41.36125 8.2165625 41.36125 8.2165625 42.75 8.4375 C45.21476956 8.86409473 47.58847107 9.35074221 50 10 C50 10.66 50 11.32 50 12 C51.32 12 52.64 12 54 12 C54 12.66 54 13.32 54 14 C55.32 14 56.64 14 58 14 C58 14.66 58 15.32 58 16 C59.32 16 60.64 16 62 16 C62 16.66 62 17.32 62 18 C63.32 18 64.64 18 66 18 C66 18.66 66 19.32 66 20 C67.32 20 68.64 20 70 20 C70 20.66 70 21.32 70 22 C70.66 22 71.32 22 72 22 C72 22.66 72 23.32 72 24 C73.32 24 74.64 24 76 24 C76 24.66 76 25.32 76 26 C76.66 26 77.32 26 78 26 C78 26.66 78 27.32 78 28 C78.66 28 79.32 28 80 28 C80 28.66 80 29.32 80 30 C81.32 30 82.64 30 84 30 C84 30.66 84 31.32 84 32 C84.66 32 85.32 32 86 32 C86 32.66 86 33.32 86 34 C86.66 34 87.32 34 88 34 C88 34.66 88 35.32 88 36 C88.66 36 89.32 36 90 36 C90 36.66 90 37.32 90 38 C90.66 38 91.32 38 92 38 C92 38.66 92 39.32 92 40 C92.66 40 93.32 40 94 40 C94 40.66 94 41.32 94 42 C94.66 42 95.32 42 96 42 C96 42.66 96 43.32 96 44 C96.66 44 97.32 44 98 44 C98 44.66 98 45.32 98 46 C98.66 46 99.32 46 100 46 C100 46.66 100 47.32 100 48 C100.66 48 101.32 48 102 48 C102 48.66 102 49.32 102 50 C102.66 50 103.32 50 104 50 C104 51.32 104 52.64 104 54 C104.66 54 105.32 54 106 54 C106 54.66 106 55.32 106 56 C106.66 56 107.32 56 108 56 C108 56.66 108 57.32 108 58 C108.66 58 109.32 58 110 58 C110 59.32 110 60.64 110 62 C110.66 62 111.32 62 112 62 C114 65 114 65 114 68 C114.66 68 115.32 68 116 68 C116 69.32 116 70.64 116 72 C116.66 72 117.32 72 118 72 C118 73.32 118 74.64 118 76 C118.66 76 119.32 76 120 76 C120 77.32 120 78.64 120 80 C120.66 80 121.32 80 122 80 C122 81.32 122 82.64 122 84 C122.66 84 123.32 84 124 84 C124 85.98 124 87.96 124 90 C124.66 90 125.32 90 126 90 C126 91.98 126 93.96 126 96 C126.66 96 127.32 96 128 96 C128 98.64 128 101.28 128 104 C128.66 104 129.32 104 130 104 C130 107.3 130 110.6 130 114 C130.66 114 131.32 114 132 114 C132 128.52 132 143.04 132 158 C131.34 158 130.68 158 130 158 C130 161.3 130 164.6 130 168 C129.34 168 128.68 168 128 168 C128 170.64 128 173.28 128 176 C127.34 176 126.68 176 126 176 C126 177.98 126 179.96 126 182 C125.34 182 124.68 182 124 182 C124 183.98 124 185.96 124 188 C123.34 188 122.68 188 122 188 C122 189.32 122 190.64 122 192 C121.34 192 120.68 192 120 192 C120 193.32 120 194.64 120 196 C119.34 196 118.68 196 118 196 C118 197.32 118 198.64 118 200 C117.34 200 116.68 200 116 200 C116 201.32 116 202.64 116 204 C115.34 204 114.68 204 114 204 C113.855625 204.61875 113.71125 205.2375 113.5625 205.875 C113 208 113 208 112 210 C111.34 210 110.68 210 110 210 C110 211.32 110 212.64 110 214 C109.34 214 108.68 214 108 214 C108 214.66 108 215.32 108 216 C107.34 216 106.68 216 106 216 C106 216.66 106 217.32 106 218 C105.34 218 104.68 218 104 218 C104 219.32 104 220.64 104 222 C103.34 222 102.68 222 102 222 C102 222.66 102 223.32 102 224 C101.34 224 100.68 224 100 224 C100 224.66 100 225.32 100 226 C99.34 226 98.68 226 98 226 C98 226.66 98 227.32 98 228 C97.34 228 96.68 228 96 228 C96 228.66 96 229.32 96 230 C95.34 230 94.68 230 94 230 C94 230.66 94 231.32 94 232 C93.34 232 92.68 232 92 232 C92 232.66 92 233.32 92 234 C91.34 234 90.68 234 90 234 C90 234.66 90 235.32 90 236 C89.34 236 88.68 236 88 236 C88 236.66 88 237.32 88 238 C87.34 238 86.68 238 86 238 C86 238.66 86 239.32 86 240 C85.34 240 84.68 240 84 240 C84 240.66 84 241.32 84 242 C82.68 242 81.36 242 80 242 C80 242.66 80 243.32 80 244 C79.34 244 78.68 244 78 244 C78 244.66 78 245.32 78 246 C77.34 246 76.68 246 76 246 C76 246.66 76 247.32 76 248 C74.68 248 73.36 248 72 248 C72 248.66 72 249.32 72 250 C71.34 250 70.68 250 70 250 C70 250.66 70 251.32 70 252 C68.68 252 67.36 252 66 252 C66 252.66 66 253.32 66 254 C64.68 254 63.36 254 62 254 C62 254.66 62 255.32 62 256 C60.68 256 59.36 256 58 256 C58 256.66 58 257.32 58 258 C56.68 258 55.36 258 54 258 C54 258.66 54 259.32 54 260 C52.68 260 51.36 260 50 260 C50 260.66 50 261.32 50 262 C48.68 262 47.36 262 46 262 C46 262.66 46 263.32 46 264 C44.02 264 42.04 264 40 264 C40 264.66 40 265.32 40 266 C37.36 266 34.72 266 32 266 C32 266.66 32 267.32 32 268 C29.36 268 26.72 268 24 268 C24 268.66 24 269.32 24 270 C19.38 270 14.76 270 10 270 C10 270.66 10 271.32 10 272 C6.7 272 3.4 272 0 272 C0 257.15 0 242.3 0 227 C1.98 227 3.96 227 6 227 C6 226.34 6 225.68 6 225 C9.96 225 13.92 225 18 225 C18 224.34 18 223.68 18 223 C18.94875 222.9175 19.8975 222.835 20.875 222.75 C28.58619047 221.63063364 35.4911039 217.92913522 42.08984375 213.953125 C44 213 44 213 47 213 C47 212.34 47 211.68 47 211 C47.99 211 48.98 211 50 211 C50 210.34 50 209.68 50 209 C50.99 209 51.98 209 53 209 C53 208.34 53 207.68 53 207 C54.6796875 205.4921875 54.6796875 205.4921875 56.875 203.875 C57.59429687 203.33617187 58.31359375 202.79734375 59.0546875 202.2421875 C61 201 61 201 63 201 C63 200.34 63 199.68 63 199 C63.66 199 64.32 199 65 199 C65 198.34 65 197.68 65 197 C65.66 197 66.32 197 67 197 C67.28875 196.236875 67.5775 195.47375 67.875 194.6875 C69 192 69 192 71 189 C71.66 189 72.32 189 73 189 C73 188.34 73 187.68 73 187 C73.66 187 74.32 187 75 187 C75.103125 186.46375 75.20625 185.9275 75.3125 185.375 C76.18092697 182.37497956 77.55620296 179.7620465 79 177 C79.66 177 80.32 177 81 177 C81 175.68 81 174.36 81 173 C81.66 173 82.32 173 83 173 C83 171.35 83 169.7 83 168 C83.66 168 84.32 168 85 168 C85 166.02 85 164.04 85 162 C85.66 162 86.32 162 87 162 C87 160.02 87 158.04 87 156 C87.66 156 88.32 156 89 156 C89 150.72 89 145.44 89 140 C89.66 140 90.32 140 91 140 C91 137.36 91 134.72 91 132 C90.34 132 89.68 132 89 132 C89 127.05 89 122.1 89 117 C88.34 117 87.68 117 87 117 C86.855625 115.865625 86.71125 114.73125 86.5625 113.5625 C86.38828522 110.19222799 86.38828522 110.19222799 85 109 C84.95936168 107.33382885 84.957279 105.66611905 85 104 C84.34 104 83.68 104 83 104 C83 102.35 83 100.7 83 99 C82.34 99 81.68 99 81 99 C81 97.68 81 96.36 81 95 C80.34 95 79.68 95 79 95 C79 93.68 79 92.36 79 91 C78.34 91 77.68 91 77 91 C76.34 89.02 75.68 87.04 75 85 C74.34 85 73.68 85 73 85 C72.34 83.02 71.68 81.04 71 79 C70.34 79 69.68 79 69 79 C69 78.34 69 77.68 69 77 C68.34 77 67.68 77 67 77 C67 76.34 67 75.68 67 75 C66.34 75 65.68 75 65 75 C63.64613064 73.34997172 62.31321858 71.6825613 61 70 C60.01 69.505 60.01 69.505 59 69 C59 68.34 59 67.68 59 67 C58.34 67 57.68 67 57 67 C57 66.34 57 65.68 57 65 C56.34 65 55.68 65 55 65 C55 64.34 55 63.68 55 63 C54.34 63 53.68 63 53 63 C53 62.34 53 61.68 53 61 C52.38125 60.855625 51.7625 60.71125 51.125 60.5625 C49 60 49 60 47 59 C47 58.34 47 57.68 47 57 C46.401875 56.855625 45.80375 56.71125 45.1875 56.5625 C43.43849596 56.1127561 41.71322977 55.57107659 40 55 C40 54.34 40 53.68 40 53 C38.68 53 37.36 53 36 53 C36 52.34 36 51.68 36 51 C35.278125 50.855625 34.55625 50.71125 33.8125 50.5625 C31.20833333 50.04166667 28.60416667 49.52083333 26 49 C26 48.34 26 47.68 26 47 C24.02 47 22.04 47 20 47 C20 46.34 20 45.68 20 45 C16.7 45 13.4 45 10 45 C10 44.34 10 43.68 10 43 C6.7 43 3.4 43 0 43 C0 28.81 0 14.62 0 0 Z M16 17 C14.0324135 20.30554532 12.95859274 22.29607652 13.1875 26.1875 C13.89613222 29.17134484 13.89613222 29.17134484 16 32 C17.97747122 32.36297936 17.97747122 32.36297936 20.125 32.1875 C21.40375 32.125625 22.6825 32.06375 24 32 C24 31.34 24 30.68 24 30 C24.66 30 25.32 30 26 30 C27.56633048 27.51229865 28.04100928 26.34447796 27.6875 23.375 C27.08066352 21.01059813 27.08066352 21.01059813 26 19 C25.34 19 24.68 19 24 19 C24 18.34 24 17.68 24 17 C21.36 17 18.72 17 16 17 Z M60 33 C60 33.66 60 34.32 60 35 C58.68 35 57.36 35 56 35 C56 35.66 56 36.32 56 37 C55.34 37 54.68 37 54 37 C54 38.32 54 39.64 54 41 C53.01 41.495 53.01 41.495 52 42 C52.66 42 53.32 42 54 42 C54 43.32 54 44.64 54 46 C54.66 46 55.32 46 56 46 C56 46.66 56 47.32 56 48 C56.66 48 57.32 48 58 48 C58 48.66 58 49.32 58 50 C59.65 50 61.3 50 63 50 C63 49.34 63 48.68 63 48 C64.32 47.34 65.64 46.68 67 46 C67 45.34 67 44.68 67 44 C67.66 44 68.32 44 69 44 C68.34414811 40.39007621 68.34414811 40.39007621 67 37 C66.34 37 65.68 37 65 37 C65 36.34 65 35.68 65 35 C62.525 34.01 62.525 34.01 60 33 Z M94 71 C94 71.66 94 72.32 94 73 C92.68 73.33 91.36 73.66 90 74 C90 74.99 90 75.98 90 77 C89.34 77 88.68 77 88 77 C88 78.65 88 80.3 88 82 C88.66 82 89.32 82 90 82 C90 83.32 90 84.64 90 86 C91.32 86 92.64 86 94 86 C94 86.66 94 87.32 94 88 C94.99 88 95.98 88 97 88 C97 87.34 97 86.68 97 86 C98.32 86 99.64 86 101 86 C101 85.34 101 84.68 101 84 C101.66 84 102.32 84 103 84 C103 81.03 103 78.06 103 75 C102.34 75 101.68 75 101 75 C101 74.34 101 73.68 101 73 C99.68 73 98.36 73 97 73 C97 72.34 97 71.68 97 71 C96.01 71 95.02 71 94 71 Z M108 121 C108 121.66 108 122.32 108 123 C107.34 123 106.68 123 106 123 C106 123.66 106 124.32 106 125 C105.34 125 104.68 125 104 125 C104 127.97 104 130.94 104 134 C104.66 134 105.32 134 106 134 C106 134.66 106 135.32 106 136 C108.97 136 111.94 136 115 136 C115 135.34 115 134.68 115 134 C115.66 134 116.32 134 117 134 C117 133.34 117 132.68 117 132 C117.66 132 118.32 132 119 132 C119 130.02 119 128.04 119 126 C118.34 126 117.68 126 117 126 C117 125.01 117 124.02 117 123 C113.86501708 121.14223235 111.62528568 120.79859524 108 121 Z M100 172 C100 172.66 100 173.32 100 174 C98.68 174 97.36 174 96 174 C96 177.3 96 180.6 96 184 C97.32 184.33 98.64 184.66 100 185 C100 185.66 100 186.32 100 187 C102.31 187 104.62 187 107 187 C107 186.34 107 185.68 107 185 C107.66 185 108.32 185 109 185 C111.29013653 181.5647952 111.17842973 180.014669 111 176 C110.34 176 109.68 176 109 176 C109 175.34 109 174.68 109 174 C108.34 174 107.68 174 107 174 C107 173.34 107 172.68 107 172 C104.69 172 102.38 172 100 172 Z M70 214 C70 214.66 70 215.32 70 216 C69.34 216 68.68 216 68 216 C68 216.66 68 217.32 68 218 C67.34 218 66.68 218 66 218 C66 220.31 66 222.62 66 225 C66.66 225 67.32 225 68 225 C68 225.66 68 226.32 68 227 C68.66 227 69.32 227 70 227 C70 227.66 70 228.32 70 229 C72.31 229 74.62 229 77 229 C77 228.34 77 227.68 77 227 C77.66 227 78.32 227 79 227 C79 226.34 79 225.68 79 225 C79.66 225 80.32 225 81 225 C81 222.69 81 220.38 81 218 C80.34 218 79.68 218 79 218 C79 217.34 79 216.68 79 216 C78.34 216 77.68 216 77 216 C77 215.34 77 214.68 77 214 C74.69 214 72.38 214 70 214 Z M24 240 C24 240.66 24 241.32 24 242 C23.34 242 22.68 242 22 242 C22 242.66 22 243.32 22 244 C21.34 244 20.68 244 20 244 C20 245.65 20 247.3 20 249 C20.66 249 21.32 249 22 249 C22 250.32 22 251.64 22 253 C23.32 253 24.64 253 26 253 C26 253.66 26 254.32 26 255 C27.65 255 29.3 255 31 255 C31 254.34 31 253.68 31 253 C32.32 252.34 33.64 251.68 35 251 C35 248.03 35 245.06 35 242 C34.34 242 33.68 242 33 242 C33 241.34 33 240.68 33 240 C30.03 240 27.06 240 24 240 Z " fill="#FCFCFC" transform="translate(239,101)"/>
<path d="M0 0 C4.95 0 9.9 0 15 0 C15 14.85 15 29.7 15 45 C13.02 45 11.04 45 9 45 C9 45.66 9 46.32 9 47 C7.68 47 6.36 47 5 47 C5 47.66 5 48.32 5 49 C3.68 49 2.36 49 1 49 C1 49.66 1 50.32 1 51 C0.34 51 -0.32 51 -1 51 C-1 51.66 -1 52.32 -1 53 C-1.66 53 -2.32 53 -3 53 C-3 53.66 -3 54.32 -3 55 C-3.66 55 -4.32 55 -5 55 C-5 55.66 -5 56.32 -5 57 C-5.66 57 -6.32 57 -7 57 C-7 58.32 -7 59.64 -7 61 C-7.66 61 -8.32 61 -9 61 C-8.979375 61.804375 -8.95875 62.60875 -8.9375 63.4375 C-9 66 -9 66 -10 67 C-10.23653523 69.52596259 -10.42173692 72.03107207 -10.5625 74.5625 C-10.60568359 75.27341797 -10.64886719 75.98433594 -10.69335938 76.71679688 C-10.79971777 78.47761912 -10.90038846 80.2387832 -11 82 C-10.34 82 -9.68 82 -9 82 C-7.74335022 84.90600261 -7 86.79604584 -7 90 C-6.34 90 -5.68 90 -5 90 C-5 90.66 -5 91.32 -5 92 C-4.34 92 -3.68 92 -3 92 C-2.67 93.32 -2.34 94.64 -2 96 C-1.01 96 -0.02 96 1 96 C1 96.66 1 97.32 1 98 C1.66 98 2.32 98 3 98 C3 98.66 3 99.32 3 100 C4.32 100 5.64 100 7 100 C7 100.66 7 101.32 7 102 C9.31 102 11.62 102 14 102 C15.1650499 104.3300998 15.1209358 105.67247077 15.11352539 108.26611328 C15.11341209 109.58725632 15.11341209 109.58725632 15.11329651 110.93508911 C15.10813522 111.88721283 15.10297394 112.83933655 15.09765625 113.8203125 C15.0962413 114.79410858 15.09482635 115.76790466 15.09336853 116.77120972 C15.08775973 119.88917073 15.07520573 123.0070606 15.0625 126.125 C15.05748613 128.23567605 15.05292303 130.34635322 15.04882812 132.45703125 C15.03778745 137.63804521 15.02104073 142.81901752 15 148 C13.55657069 148.00899432 12.11312521 148.01541824 10.66967773 148.02075195 C9.46395363 148.02653008 9.46395363 148.02653008 8.23387146 148.03242493 C0.643451 147.92224901 -6.83132877 145.2878738 -14 143 C-14 142.34 -14 141.68 -14 141 C-15.32 141 -16.64 141 -18 141 C-18 140.34 -18 139.68 -18 139 C-19.32 139 -20.64 139 -22 139 C-22 138.34 -22 137.68 -22 137 C-22.66 137 -23.32 137 -24 137 C-24 136.34 -24 135.68 -24 135 C-24.61875 134.855625 -25.2375 134.71125 -25.875 134.5625 C-28 134 -28 134 -30 133 C-30 132.34 -30 131.68 -30 131 C-30.66 131 -31.32 131 -32 131 C-32 130.34 -32 129.68 -32 129 C-32.66 129 -33.32 129 -34 129 C-34 128.34 -34 127.68 -34 127 C-34.66 127 -35.32 127 -36 127 C-36 126.34 -36 125.68 -36 125 C-36.66 125 -37.32 125 -38 125 C-38 124.34 -38 123.68 -38 123 C-38.66 123 -39.32 123 -40 123 C-40 122.34 -40 121.68 -40 121 C-40.66 121 -41.32 121 -42 121 C-42 119.68 -42 118.36 -42 117 C-42.66 117 -43.32 117 -44 117 C-44 116.34 -44 115.68 -44 115 C-44.66 115 -45.32 115 -46 115 C-46 113.68 -46 112.36 -46 111 C-46.66 111 -47.32 111 -48 111 C-48 109.68 -48 108.36 -48 107 C-48.66 107 -49.32 107 -50 107 C-50 105.68 -50 104.36 -50 103 C-50.66 103 -51.32 103 -52 103 C-52 101.02 -52 99.04 -52 97 C-52.66 97 -53.32 97 -54 97 C-54 95.02 -54 93.04 -54 91 C-54.66 91 -55.32 91 -56 91 C-56 80.11 -56 69.22 -56 58 C-55.34 58 -54.68 58 -54 58 C-54 55.36 -54 52.72 -54 50 C-53.34 50 -52.68 50 -52 50 C-52 48.02 -52 46.04 -52 44 C-51.34 44 -50.68 44 -50 44 C-50 42.68 -50 41.36 -50 40 C-49.34 40 -48.68 40 -48 40 C-48 38.68 -48 37.36 -48 36 C-47.34 36 -46.68 36 -46 36 C-46 35.34 -46 34.68 -46 34 C-45.34 34 -44.68 34 -44 34 C-44 32.68 -44 31.36 -44 30 C-43.34 30 -42.68 30 -42 30 C-42 29.34 -42 28.68 -42 28 C-41.34 28 -40.68 28 -40 28 C-40 27.01 -40 26.02 -40 25 C-39.34 25 -38.68 25 -38 25 C-38 24.01 -38 23.02 -38 22 C-37.34 22 -36.68 22 -36 22 C-36 21.34 -36 20.68 -36 20 C-35.34 20 -34.68 20 -34 20 C-34 19.34 -34 18.68 -34 18 C-32.02 17.34 -30.04 16.68 -28 16 C-28 15.34 -28 14.68 -28 14 C-27.34 14 -26.68 14 -26 14 C-26 13.34 -26 12.68 -26 12 C-24.02 11.34 -22.04 10.68 -20 10 C-20 9.34 -20 8.68 -20 8 C-18.68 8 -17.36 8 -16 8 C-16 7.34 -16 6.68 -16 6 C-14.68 6 -13.36 6 -12 6 C-12 5.34 -12 4.68 -12 4 C-10.02 4 -8.04 4 -6 4 C-6 3.34 -6 2.68 -6 2 C-4.02 2 -2.04 2 0 2 C0 1.34 0 0.68 0 0 Z " fill="#FDFDFD" transform="translate(223,328)"/>
<path d="M0 0 C1.98 0 3.96 0 6 0 C6 0.66 6 1.32 6 2 C7.98 2 9.96 2 12 2 C12 2.66 12 3.32 12 4 C12.99 4 13.98 4 15 4 C15 4.66 15 5.32 15 6 C15.66 6 16.32 6 17 6 C20.80397335 11.77522401 20.42391606 17.40210841 20.38818359 24.15234375 C20.39344055 25.37253204 20.39869751 26.59272034 20.40411377 27.84988403 C20.41503276 31.18473342 20.41250521 34.51902225 20.40297651 37.85383987 C20.39535965 41.35040264 20.40243114 44.84694212 20.40713501 48.34350586 C20.41258668 54.214399 20.40541647 60.08517877 20.39111328 65.95605469 C20.37478781 72.73510925 20.38007674 79.51389309 20.3965925 86.29294109 C20.4102242 92.12243046 20.41211882 97.95183853 20.40427649 103.78133869 C20.39960919 107.25904589 20.398949 110.73662601 20.40888596 114.21432495 C20.4191932 118.09220837 20.40489067 121.96979068 20.38818359 125.84765625 C20.39425629 126.99485138 20.40032898 128.14204651 20.40658569 129.32400513 C20.36095028 135.04098172 20.1827874 139.16786567 17 144 C16.34 144 15.68 144 15 144 C15 144.66 15 145.32 15 146 C14.01 146 13.02 146 12 146 C12 146.66 12 147.32 12 148 C6.06 148 0.12 148 -6 148 C-6 147.34 -6 146.68 -6 146 C-6.66 146 -7.32 146 -8 146 C-8 145.34 -8 144.68 -8 144 C-8.66 144 -9.32 144 -10 144 C-10 143.34 -10 142.68 -10 142 C-10.66 142 -11.32 142 -12 142 C-12 140.68 -12 139.36 -12 138 C-12.66 138 -13.32 138 -14 138 C-14 95.76 -14 53.52 -14 10 C-13.34 10 -12.68 10 -12 10 C-12 9.34 -12 8.68 -12 8 C-11.34 8 -10.68 8 -10 8 C-10 7.34 -10 6.68 -10 6 C-9.34 6 -8.68 6 -8 6 C-8 5.34 -8 4.68 -8 4 C-7.34 4 -6.68 4 -6 4 C-6 3.34 -6 2.68 -6 2 C-4.02 2 -2.04 2 0 2 C0 1.34 0 0.68 0 0 Z " fill="#FDFDFD" transform="translate(492,163)"/>
</svg>
